<svg width="37" height="37" viewBox="0 0 37 37" fill="none" xmlns="http://www.w3.org/2000/svg">
<path id="Vector" d="M8.65625 9.48485H15.2188V26.4545L10.8438 24.3333M28.3438 9.48485H22.875C22.5849 9.48485 22.3067 9.59659 22.1016 9.79549C21.8965 9.99439 21.7812 10.2642 21.7812 10.5455V16.9091C21.7812 17.1904 21.8965 17.4602 22.1016 17.6591C22.3067 17.858 22.5849 17.9697 22.875 17.9697H25.9878C26.1444 17.9697 26.2991 18.0023 26.4415 18.0653C26.584 18.1283 26.7108 18.2203 26.8135 18.3349C26.9161 18.4495 26.9922 18.5842 27.0366 18.7297C27.0809 18.8753 27.0925 19.0285 27.0706 19.1788L26.1562 25.3939L21.7812 26.4545M36 1L31.625 31.7576L18.5 36L5.375 31.7576L1 1H36Z" stroke="#A80B98" stroke-width="2" stroke-linecap="round" stroke-linejoin="round"/>
</svg>
